<?xml version="1.0" standalone="no"?><!DOCTYPE svg PUBLIC "-//W3C//DTD SVG 1.1//EN" "http://www.w3.org/Graphics/SVG/1.1/DTD/svg11.dtd"><svg t="1619445026944" class="icon" viewBox="0 0 1024 1024" version="1.1" xmlns="http://www.w3.org/2000/svg" p-id="3809" width="48" height="48" xmlns:xlink="http://www.w3.org/1999/xlink"><defs><style type="text/css"></style></defs><path d="M78.79136 29.568A61.312 61.312 0 0 1 136.19936 19.84l6.592 3.008 742.4 406.08c19.2 10.048 25.6 30.528 25.6 52.352a53.504 53.504 0 0 1-25.856 46.08l-6.144 3.136-140.8 59.392 115.2 146.816c17.728 21.888 19.072 53.632-0.96 74.048l-165.44 148.864c-23.488 18.176-52.288 17.152-71.744-1.408l-5.056-5.504-115.2-146.816-83.2 134.336c-6.4 18.496-32 28.608-51.2 25.856a57.28 57.28 0 0 1-42.24-32l-2.56-6.72-249.6-838.016c-6.4-21.568 0-45.184 12.8-59.776z m128 155.136l179.2 593.216 57.6-96.768c6.4-15.168 25.6-24.896 38.4-26.176a49.536 49.536 0 0 1 39.296 14.336l5.504 5.504 134.4 163.008 76.8-72-128-162.944c-12.8-13.76-12.8-32.192-12.8-49.536 5.504-14.912 15.68-27.52 26.56-35.072l5.44-3.328 102.4-42.816-524.8-287.424z" fill="#000000" p-id="3810"></path></svg>