<?xml version="1.0" standalone="no"?><!DOCTYPE svg PUBLIC "-//W3C//DTD SVG 1.1//EN" "http://www.w3.org/Graphics/SVG/1.1/DTD/svg11.dtd"><svg t="1619445050998" class="icon" viewBox="0 0 1025 1024" version="1.1" xmlns="http://www.w3.org/2000/svg" p-id="4052" width="48.046875" height="48" xmlns:xlink="http://www.w3.org/1999/xlink"><defs><style type="text/css"></style></defs><path d="M434.557622 335.075503l559.361367 291.830253c18.043915 9.382836 30.073192 28.028215 30.073192 47.756229-6.014638 19.78816-18.043915 37.050172-36.08783 44.267738l-84.204937 32.839926 78.190298 91.061625c18.043915 21.472259 12.029277 53.530281-6.014638 71.574196l-120.292767 97.918313c-24.058553 18.043915-54.131745 15.217035-72.17566-6.255224l-84.204938-91.061625-48.117106 76.867078c-6.014638 16.901134-30.073192 26.28397-48.117107 23.998407a52.207061 52.207061 0 0 1-42.102469-34.524024l-204.497704-585.645337a49.320035 49.320035 0 0 1 18.043915-54.793356c18.043915-13.352497 42.102469-15.698206 60.146384-5.834199z m66.161022 149.704349l120.292767 360.457277 30.073192-43.485835c6.014638-13.953961 24.058553-22.915772 42.102468-24.178847 12.029277-1.202928 30.073192 5.473321 42.102469 17.983769l90.219575 106.27866 42.102469-32.59934-90.219576-106.27866c-12.029277-12.570594-18.043915-29.351435-12.029277-45.23008 6.014638-15.818499 18.043915-28.749971 30.073192-34.704464l48.117107-18.585232-342.834386-179.657248zM72.897417 324.3093l6.796541 0.18044 108.263491 8.841518c24.058553 2.466002 48.117107 27.126019 42.102468 55.033941 0 25.862945-20.44977 45.41052-47.335204 46.312715l-6.796541-0.120292-102.248852-8.841519c-30.073192-2.466002-54.131745-27.126019-48.117107-55.033941 0-25.862945 20.44977-45.41052 47.335204-46.312715z m181.221054-179.837687l66.161022 77.829421c18.043915 21.472259 18.043915 53.530281-6.014639 71.574196-24.058553 17.983769-54.131745 15.217035-72.17566-6.31537l-66.161022-77.769274c-22.314308-19.908453-18.765672-49.019303 1.142781-67.484242l4.871857-4.089954c18.043915-17.983769 54.131745-15.217035 72.175661 6.255223zM433.715572 25.742652l6.856688 0.180439c27.787629 2.285563 45.290227 23.45709 47.816375 48.658425l0.300732 6.375516-12.029277 101.166218c0 27.968068-24.058553 48.598278-54.131745 46.192422-27.787629-2.285563-45.290227-23.45709-47.816375-48.658424l-0.300732-6.375517 6.014638-101.166217c5.533467-25.862945 26.464409-45.41052 53.289696-46.312715z" fill="#000000" p-id="4053"></path></svg>